M48
; DRILL file {KiCad 5.1.5-52549c5~86~ubuntu18.04.1} date 2020年05月10日 星期日 10时23分15秒
; FORMAT={-:-/ absolute / inch / decimal}
; #@! TF.CreationDate,2020-05-10T10:23:15+08:00
; #@! TF.GenerationSoftware,Kicad,Pcbnew,5.1.5-52549c5~86~ubuntu18.04.1
; #@! TF.FileFunction,Plated,1,2,PTH
FMAT,2
INCH
T1C0.0157
T2C0.0197
T3C0.0315
T4C0.0394
T5C0.1181
%
G90
G05
T1
X1.4937Y-5.5137
X1.54Y-4.91
X1.55Y-4.81
X1.72Y-4.89
X1.78Y-5.58
X1.9Y-5.3
X1.93Y-5.01
X1.97Y-4.8342
X2.04Y-5.42
X2.05Y-4.86
X2.08Y-4.89
X2.11Y-4.92
X2.1417Y-5.0374
X2.15Y-4.74
X2.17Y-5.07
X2.2098Y-5.1102
X2.21Y-5.07
X2.21Y-5.15
X2.2126Y-5.1902
X2.24Y-5.22
X2.27Y-5.25
X2.3Y-5.28
X2.32Y-5.0895
X2.3485Y-5.1215
X2.362Y-5.3633
X2.375Y-5.325
X2.38Y-5.15
X2.46Y-4.96
X2.54Y-5.15
X2.54Y-5.38
X2.5971Y-5.1483
X2.67Y-4.8
X2.75Y-4.975
X2.76Y-5.07
X2.8Y-5.34
X2.88Y-5.45
X3.0Y-5.25
X3.0Y-5.45
X3.225Y-4.975
X3.25Y-5.35
X3.3Y-5.35
X3.3121Y-4.7279
X3.51Y-5.62
X3.67Y-5.4
T2
X2.615Y-5.4152
X2.615Y-5.49
T3
X2.7029Y-5.235
X2.895Y-5.235
T4
X1.8Y-4.6
X1.9Y-4.6
X2.0Y-4.6
X2.1Y-4.6
X2.2Y-4.6
X2.3Y-4.6
X2.4Y-4.6
X2.5Y-4.6
X2.6Y-4.6
X2.7Y-4.6
X2.8Y-4.6
X2.9Y-4.6
X3.0Y-4.6
X3.1Y-4.6
X3.2Y-4.6
X3.3Y-4.6
X1.6Y-5.0
X1.6Y-5.1
X1.6Y-5.2
X1.6Y-5.3
X3.455Y-4.6
X3.555Y-4.6
X3.315Y-4.805
X3.415Y-4.805
X3.515Y-4.805
X1.8Y-5.7
X1.9Y-5.7
X2.0Y-5.7
X2.1Y-5.7
X2.2Y-5.7
X2.3Y-5.7
X2.4Y-5.7
X2.5Y-5.7
X2.6Y-5.7
X2.7Y-5.7
X2.8Y-5.7
X2.9Y-5.7
X3.0Y-5.7
X3.1Y-5.7
X3.2Y-5.7
X3.3Y-5.7
X3.455Y-5.7
X3.555Y-5.7
X1.8Y-5.0
X1.8Y-5.1
X1.8Y-5.2
X1.8Y-5.3
T5
X1.6Y-4.65
X1.6Y-5.65
X3.75Y-4.65
X3.75Y-5.65
T0
M30
