G04 #@! TF.GenerationSoftware,KiCad,Pcbnew,5.1.5-52549c5~86~ubuntu18.04.1*
G04 #@! TF.CreationDate,2020-05-10T10:22:58+08:00*
G04 #@! TF.ProjectId,xzkb,787a6b62-2e6b-4696-9361-645f70636258,rev?*
G04 #@! TF.SameCoordinates,Original*
G04 #@! TF.FileFunction,Legend,Bot*
G04 #@! TF.FilePolarity,Positive*
%FSLAX46Y46*%
G04 Gerber Fmt 4.6, Leading zero omitted, Abs format (unit mm)*
G04 Created by KiCad (PCBNEW 5.1.5-52549c5~86~ubuntu18.04.1) date 2020-05-10 10:22:58*
%MOMM*%
%LPD*%
G04 APERTURE LIST*
%ADD10C,0.150000*%
%ADD11C,0.120000*%
G04 APERTURE END LIST*
D10*
X88010904Y-142502000D02*
X88106142Y-142454380D01*
X88249000Y-142454380D01*
X88391857Y-142502000D01*
X88487095Y-142597238D01*
X88534714Y-142692476D01*
X88582333Y-142882952D01*
X88582333Y-143025809D01*
X88534714Y-143216285D01*
X88487095Y-143311523D01*
X88391857Y-143406761D01*
X88249000Y-143454380D01*
X88153761Y-143454380D01*
X88010904Y-143406761D01*
X87963285Y-143359142D01*
X87963285Y-143025809D01*
X88153761Y-143025809D01*
X87534714Y-143454380D02*
X87534714Y-142454380D01*
X86963285Y-143454380D01*
X86963285Y-142454380D01*
X86487095Y-143454380D02*
X86487095Y-142454380D01*
X86249000Y-142454380D01*
X86106142Y-142502000D01*
X86010904Y-142597238D01*
X85963285Y-142692476D01*
X85915666Y-142882952D01*
X85915666Y-143025809D01*
X85963285Y-143216285D01*
X86010904Y-143311523D01*
X86106142Y-143406761D01*
X86249000Y-143454380D01*
X86487095Y-143454380D01*
X90265095Y-118324380D02*
X89646047Y-118324380D01*
X89979380Y-118705333D01*
X89836523Y-118705333D01*
X89741285Y-118752952D01*
X89693666Y-118800571D01*
X89646047Y-118895809D01*
X89646047Y-119133904D01*
X89693666Y-119229142D01*
X89741285Y-119276761D01*
X89836523Y-119324380D01*
X90122238Y-119324380D01*
X90217476Y-119276761D01*
X90265095Y-119229142D01*
X89360333Y-118324380D02*
X89027000Y-119324380D01*
X88693666Y-118324380D01*
X88455571Y-118324380D02*
X87836523Y-118324380D01*
X88169857Y-118705333D01*
X88027000Y-118705333D01*
X87931761Y-118752952D01*
X87884142Y-118800571D01*
X87836523Y-118895809D01*
X87836523Y-119133904D01*
X87884142Y-119229142D01*
X87931761Y-119276761D01*
X88027000Y-119324380D01*
X88312714Y-119324380D01*
X88407952Y-119276761D01*
X88455571Y-119229142D01*
X41044761Y-136818857D02*
X41092380Y-136961714D01*
X41092380Y-137199809D01*
X41044761Y-137295047D01*
X40997142Y-137342666D01*
X40901904Y-137390285D01*
X40806666Y-137390285D01*
X40711428Y-137342666D01*
X40663809Y-137295047D01*
X40616190Y-137199809D01*
X40568571Y-137009333D01*
X40520952Y-136914095D01*
X40473333Y-136866476D01*
X40378095Y-136818857D01*
X40282857Y-136818857D01*
X40187619Y-136866476D01*
X40140000Y-136914095D01*
X40092380Y-137009333D01*
X40092380Y-137247428D01*
X40140000Y-137390285D01*
X40092380Y-137723619D02*
X41092380Y-137961714D01*
X40378095Y-138152190D01*
X41092380Y-138342666D01*
X40092380Y-138580761D01*
X41092380Y-138961714D02*
X40092380Y-138961714D01*
X40092380Y-139199809D01*
X40140000Y-139342666D01*
X40235238Y-139437904D01*
X40330476Y-139485523D01*
X40520952Y-139533142D01*
X40663809Y-139533142D01*
X40854285Y-139485523D01*
X40949523Y-139437904D01*
X41044761Y-139342666D01*
X41092380Y-139199809D01*
X41092380Y-138961714D01*
X45172380Y-136834761D02*
X45981904Y-136834761D01*
X46077142Y-136882380D01*
X46124761Y-136930000D01*
X46172380Y-137025238D01*
X46172380Y-137215714D01*
X46124761Y-137310952D01*
X46077142Y-137358571D01*
X45981904Y-137406190D01*
X45172380Y-137406190D01*
X45886666Y-137834761D02*
X45886666Y-138310952D01*
X46172380Y-137739523D02*
X45172380Y-138072857D01*
X46172380Y-138406190D01*
X46172380Y-139310952D02*
X45696190Y-138977619D01*
X46172380Y-138739523D02*
X45172380Y-138739523D01*
X45172380Y-139120476D01*
X45220000Y-139215714D01*
X45267619Y-139263333D01*
X45362857Y-139310952D01*
X45505714Y-139310952D01*
X45600952Y-139263333D01*
X45648571Y-139215714D01*
X45696190Y-139120476D01*
X45696190Y-138739523D01*
X45172380Y-139596666D02*
X45172380Y-140168095D01*
X46172380Y-139882380D02*
X45172380Y-139882380D01*
D11*
X46990000Y-125730000D02*
X44450000Y-125730000D01*
X46990000Y-136525000D02*
X46990000Y-125730000D01*
X44450000Y-136525000D02*
X46990000Y-136525000D01*
X44450000Y-125730000D02*
X44450000Y-136525000D01*
X41910000Y-125730000D02*
X39370000Y-125730000D01*
X41910000Y-136525000D02*
X41910000Y-125730000D01*
X39370000Y-136525000D02*
X41910000Y-136525000D01*
X39370000Y-125730000D02*
X39370000Y-136525000D01*
D10*
X42378380Y-134270904D02*
X42378380Y-134889952D01*
X42759333Y-134556619D01*
X42759333Y-134699476D01*
X42806952Y-134794714D01*
X42854571Y-134842333D01*
X42949809Y-134889952D01*
X43187904Y-134889952D01*
X43283142Y-134842333D01*
X43330761Y-134794714D01*
X43378380Y-134699476D01*
X43378380Y-134413761D01*
X43330761Y-134318523D01*
X43283142Y-134270904D01*
X42378380Y-135175666D02*
X43378380Y-135509000D01*
X42378380Y-135842333D01*
X42378380Y-136080428D02*
X42378380Y-136699476D01*
X42759333Y-136366142D01*
X42759333Y-136509000D01*
X42806952Y-136604238D01*
X42854571Y-136651857D01*
X42949809Y-136699476D01*
X43187904Y-136699476D01*
X43283142Y-136651857D01*
X43330761Y-136604238D01*
X43378380Y-136509000D01*
X43378380Y-136223285D01*
X43330761Y-136128047D01*
X43283142Y-136080428D01*
X43283142Y-131738761D02*
X43330761Y-131691142D01*
X43378380Y-131548285D01*
X43378380Y-131453047D01*
X43330761Y-131310190D01*
X43235523Y-131214952D01*
X43140285Y-131167333D01*
X42949809Y-131119714D01*
X42806952Y-131119714D01*
X42616476Y-131167333D01*
X42521238Y-131214952D01*
X42426000Y-131310190D01*
X42378380Y-131453047D01*
X42378380Y-131548285D01*
X42426000Y-131691142D01*
X42473619Y-131738761D01*
X43378380Y-132643523D02*
X43378380Y-132167333D01*
X42378380Y-132167333D01*
X43378380Y-132976857D02*
X42378380Y-132976857D01*
X43378380Y-133548285D02*
X42806952Y-133119714D01*
X42378380Y-133548285D02*
X42949809Y-132976857D01*
X43378380Y-128931538D02*
X42378380Y-128931538D01*
X42378380Y-129598205D02*
X42378380Y-129788681D01*
X42426000Y-129883919D01*
X42521238Y-129979157D01*
X42711714Y-130026776D01*
X43045047Y-130026776D01*
X43235523Y-129979157D01*
X43330761Y-129883919D01*
X43378380Y-129788681D01*
X43378380Y-129598205D01*
X43330761Y-129502967D01*
X43235523Y-129407728D01*
X43045047Y-129360109D01*
X42711714Y-129360109D01*
X42521238Y-129407728D01*
X42426000Y-129502967D01*
X42378380Y-129598205D01*
X42426000Y-125857095D02*
X42378380Y-125761857D01*
X42378380Y-125619000D01*
X42426000Y-125476142D01*
X42521238Y-125380904D01*
X42616476Y-125333285D01*
X42806952Y-125285666D01*
X42949809Y-125285666D01*
X43140285Y-125333285D01*
X43235523Y-125380904D01*
X43330761Y-125476142D01*
X43378380Y-125619000D01*
X43378380Y-125714238D01*
X43330761Y-125857095D01*
X43283142Y-125904714D01*
X42949809Y-125904714D01*
X42949809Y-125714238D01*
X43378380Y-126333285D02*
X42378380Y-126333285D01*
X43378380Y-126904714D01*
X42378380Y-126904714D01*
X43378380Y-127380904D02*
X42378380Y-127380904D01*
X42378380Y-127619000D01*
X42426000Y-127761857D01*
X42521238Y-127857095D01*
X42616476Y-127904714D01*
X42806952Y-127952333D01*
X42949809Y-127952333D01*
X43140285Y-127904714D01*
X43235523Y-127857095D01*
X43330761Y-127761857D01*
X43378380Y-127619000D01*
X43378380Y-127380904D01*
X47453633Y-128854295D02*
X47453633Y-129425723D01*
X48453633Y-129140009D02*
X47453633Y-129140009D01*
X47453633Y-129663819D02*
X48453633Y-130330485D01*
X47453633Y-130330485D02*
X48453633Y-129663819D01*
X48453633Y-132014933D02*
X47977443Y-131681600D01*
X48453633Y-131443504D02*
X47453633Y-131443504D01*
X47453633Y-131824457D01*
X47501253Y-131919695D01*
X47548872Y-131967314D01*
X47644110Y-132014933D01*
X47786967Y-132014933D01*
X47882205Y-131967314D01*
X47929824Y-131919695D01*
X47977443Y-131824457D01*
X47977443Y-131443504D01*
X47453633Y-132348266D02*
X48453633Y-133014933D01*
X47453633Y-133014933D02*
X48453633Y-132348266D01*
X84012066Y-118462514D02*
X84012066Y-118938704D01*
X84297780Y-118367276D02*
X83297780Y-118700609D01*
X84297780Y-119033942D01*
X83297780Y-119557752D02*
X83297780Y-119652990D01*
X83345400Y-119748228D01*
X83393019Y-119795847D01*
X83488257Y-119843466D01*
X83678733Y-119891085D01*
X83916828Y-119891085D01*
X84107304Y-119843466D01*
X84202542Y-119795847D01*
X84250161Y-119748228D01*
X84297780Y-119652990D01*
X84297780Y-119557752D01*
X84250161Y-119462514D01*
X84202542Y-119414895D01*
X84107304Y-119367276D01*
X83916828Y-119319657D01*
X83678733Y-119319657D01*
X83488257Y-119367276D01*
X83393019Y-119414895D01*
X83345400Y-119462514D01*
X83297780Y-119557752D01*
X81471210Y-118462514D02*
X81471210Y-118938704D01*
X81756924Y-118367276D02*
X80756924Y-118700609D01*
X81756924Y-119033942D01*
X81756924Y-119891085D02*
X81756924Y-119319657D01*
X81756924Y-119605371D02*
X80756924Y-119605371D01*
X80899782Y-119510133D01*
X80995020Y-119414895D01*
X81042639Y-119319657D01*
X78930364Y-118462514D02*
X78930364Y-118938704D01*
X79216078Y-118367276D02*
X78216078Y-118700609D01*
X79216078Y-119033942D01*
X78311317Y-119319657D02*
X78263698Y-119367276D01*
X78216078Y-119462514D01*
X78216078Y-119700609D01*
X78263698Y-119795847D01*
X78311317Y-119843466D01*
X78406555Y-119891085D01*
X78501793Y-119891085D01*
X78644650Y-119843466D01*
X79216078Y-119272038D01*
X79216078Y-119891085D01*
X76389518Y-118462514D02*
X76389518Y-118938704D01*
X76675232Y-118367276D02*
X75675232Y-118700609D01*
X76675232Y-119033942D01*
X75675232Y-119272038D02*
X75675232Y-119891085D01*
X76056185Y-119557752D01*
X76056185Y-119700609D01*
X76103804Y-119795847D01*
X76151423Y-119843466D01*
X76246661Y-119891085D01*
X76484756Y-119891085D01*
X76579994Y-119843466D01*
X76627613Y-119795847D01*
X76675232Y-119700609D01*
X76675232Y-119414895D01*
X76627613Y-119319657D01*
X76579994Y-119272038D01*
X73848672Y-118462514D02*
X73848672Y-118938704D01*
X74134386Y-118367276D02*
X73134386Y-118700609D01*
X74134386Y-119033942D01*
X73467720Y-119795847D02*
X74134386Y-119795847D01*
X73086767Y-119557752D02*
X73801053Y-119319657D01*
X73801053Y-119938704D01*
X71307826Y-118462514D02*
X71307826Y-118938704D01*
X71593540Y-118367276D02*
X70593540Y-118700609D01*
X71593540Y-119033942D01*
X70593540Y-119843466D02*
X70593540Y-119367276D01*
X71069731Y-119319657D01*
X71022112Y-119367276D01*
X70974493Y-119462514D01*
X70974493Y-119700609D01*
X71022112Y-119795847D01*
X71069731Y-119843466D01*
X71164969Y-119891085D01*
X71403064Y-119891085D01*
X71498302Y-119843466D01*
X71545921Y-119795847D01*
X71593540Y-119700609D01*
X71593540Y-119462514D01*
X71545921Y-119367276D01*
X71498302Y-119319657D01*
X68766980Y-118462514D02*
X68766980Y-118938704D01*
X69052694Y-118367276D02*
X68052694Y-118700609D01*
X69052694Y-119033942D01*
X68052694Y-119795847D02*
X68052694Y-119605371D01*
X68100314Y-119510133D01*
X68147933Y-119462514D01*
X68290790Y-119367276D01*
X68481266Y-119319657D01*
X68862218Y-119319657D01*
X68957456Y-119367276D01*
X69005075Y-119414895D01*
X69052694Y-119510133D01*
X69052694Y-119700609D01*
X69005075Y-119795847D01*
X68957456Y-119843466D01*
X68862218Y-119891085D01*
X68624123Y-119891085D01*
X68528885Y-119843466D01*
X68481266Y-119795847D01*
X68433647Y-119700609D01*
X68433647Y-119510133D01*
X68481266Y-119414895D01*
X68528885Y-119367276D01*
X68624123Y-119319657D01*
X66226134Y-118462514D02*
X66226134Y-118938704D01*
X66511848Y-118367276D02*
X65511848Y-118700609D01*
X66511848Y-119033942D01*
X65511848Y-119272038D02*
X65511848Y-119938704D01*
X66511848Y-119510133D01*
X63875764Y-119010133D02*
X63923383Y-118962514D01*
X63971002Y-118819657D01*
X63971002Y-118724419D01*
X63923383Y-118581561D01*
X63828145Y-118486323D01*
X63732907Y-118438704D01*
X63542431Y-118391085D01*
X63399574Y-118391085D01*
X63209098Y-118438704D01*
X63113860Y-118486323D01*
X63018622Y-118581561D01*
X62971002Y-118724419D01*
X62971002Y-118819657D01*
X63018622Y-118962514D01*
X63066241Y-119010133D01*
X62971002Y-119629180D02*
X62971002Y-119724419D01*
X63018622Y-119819657D01*
X63066241Y-119867276D01*
X63161479Y-119914895D01*
X63351955Y-119962514D01*
X63590050Y-119962514D01*
X63780526Y-119914895D01*
X63875764Y-119867276D01*
X63923383Y-119819657D01*
X63971002Y-119724419D01*
X63971002Y-119629180D01*
X63923383Y-119533942D01*
X63875764Y-119486323D01*
X63780526Y-119438704D01*
X63590050Y-119391085D01*
X63351955Y-119391085D01*
X63161479Y-119438704D01*
X63066241Y-119486323D01*
X63018622Y-119533942D01*
X62971002Y-119629180D01*
X61334918Y-119010133D02*
X61382537Y-118962514D01*
X61430156Y-118819657D01*
X61430156Y-118724419D01*
X61382537Y-118581561D01*
X61287299Y-118486323D01*
X61192061Y-118438704D01*
X61001585Y-118391085D01*
X60858728Y-118391085D01*
X60668252Y-118438704D01*
X60573014Y-118486323D01*
X60477776Y-118581561D01*
X60430156Y-118724419D01*
X60430156Y-118819657D01*
X60477776Y-118962514D01*
X60525395Y-119010133D01*
X61430156Y-119962514D02*
X61430156Y-119391085D01*
X61430156Y-119676800D02*
X60430156Y-119676800D01*
X60573014Y-119581561D01*
X60668252Y-119486323D01*
X60715871Y-119391085D01*
X58794072Y-119010133D02*
X58841691Y-118962514D01*
X58889310Y-118819657D01*
X58889310Y-118724419D01*
X58841691Y-118581561D01*
X58746453Y-118486323D01*
X58651215Y-118438704D01*
X58460739Y-118391085D01*
X58317882Y-118391085D01*
X58127406Y-118438704D01*
X58032168Y-118486323D01*
X57936930Y-118581561D01*
X57889310Y-118724419D01*
X57889310Y-118819657D01*
X57936930Y-118962514D01*
X57984549Y-119010133D01*
X57984549Y-119391085D02*
X57936930Y-119438704D01*
X57889310Y-119533942D01*
X57889310Y-119772038D01*
X57936930Y-119867276D01*
X57984549Y-119914895D01*
X58079787Y-119962514D01*
X58175025Y-119962514D01*
X58317882Y-119914895D01*
X58889310Y-119343466D01*
X58889310Y-119962514D01*
X56253226Y-119010133D02*
X56300845Y-118962514D01*
X56348464Y-118819657D01*
X56348464Y-118724419D01*
X56300845Y-118581561D01*
X56205607Y-118486323D01*
X56110369Y-118438704D01*
X55919893Y-118391085D01*
X55777036Y-118391085D01*
X55586560Y-118438704D01*
X55491322Y-118486323D01*
X55396084Y-118581561D01*
X55348464Y-118724419D01*
X55348464Y-118819657D01*
X55396084Y-118962514D01*
X55443703Y-119010133D01*
X55348464Y-119343466D02*
X55348464Y-119962514D01*
X55729417Y-119629180D01*
X55729417Y-119772038D01*
X55777036Y-119867276D01*
X55824655Y-119914895D01*
X55919893Y-119962514D01*
X56157988Y-119962514D01*
X56253226Y-119914895D01*
X56300845Y-119867276D01*
X56348464Y-119772038D01*
X56348464Y-119486323D01*
X56300845Y-119391085D01*
X56253226Y-119343466D01*
X53712380Y-119010133D02*
X53759999Y-118962514D01*
X53807618Y-118819657D01*
X53807618Y-118724419D01*
X53759999Y-118581561D01*
X53664761Y-118486323D01*
X53569523Y-118438704D01*
X53379047Y-118391085D01*
X53236190Y-118391085D01*
X53045714Y-118438704D01*
X52950476Y-118486323D01*
X52855238Y-118581561D01*
X52807618Y-118724419D01*
X52807618Y-118819657D01*
X52855238Y-118962514D01*
X52902857Y-119010133D01*
X53140952Y-119867276D02*
X53807618Y-119867276D01*
X52759999Y-119629180D02*
X53474285Y-119391085D01*
X53474285Y-120010133D01*
X51171534Y-119010133D02*
X51219153Y-118962514D01*
X51266772Y-118819657D01*
X51266772Y-118724419D01*
X51219153Y-118581561D01*
X51123915Y-118486323D01*
X51028677Y-118438704D01*
X50838201Y-118391085D01*
X50695344Y-118391085D01*
X50504868Y-118438704D01*
X50409630Y-118486323D01*
X50314392Y-118581561D01*
X50266772Y-118724419D01*
X50266772Y-118819657D01*
X50314392Y-118962514D01*
X50362011Y-119010133D01*
X50266772Y-119914895D02*
X50266772Y-119438704D01*
X50742963Y-119391085D01*
X50695344Y-119438704D01*
X50647725Y-119533942D01*
X50647725Y-119772038D01*
X50695344Y-119867276D01*
X50742963Y-119914895D01*
X50838201Y-119962514D01*
X51076296Y-119962514D01*
X51171534Y-119914895D01*
X51219153Y-119867276D01*
X51266772Y-119772038D01*
X51266772Y-119533942D01*
X51219153Y-119438704D01*
X51171534Y-119391085D01*
X48630688Y-119010133D02*
X48678307Y-118962514D01*
X48725926Y-118819657D01*
X48725926Y-118724419D01*
X48678307Y-118581561D01*
X48583069Y-118486323D01*
X48487831Y-118438704D01*
X48297355Y-118391085D01*
X48154498Y-118391085D01*
X47964022Y-118438704D01*
X47868784Y-118486323D01*
X47773546Y-118581561D01*
X47725926Y-118724419D01*
X47725926Y-118819657D01*
X47773546Y-118962514D01*
X47821165Y-119010133D01*
X47725926Y-119867276D02*
X47725926Y-119676800D01*
X47773546Y-119581561D01*
X47821165Y-119533942D01*
X47964022Y-119438704D01*
X48154498Y-119391085D01*
X48535450Y-119391085D01*
X48630688Y-119438704D01*
X48678307Y-119486323D01*
X48725926Y-119581561D01*
X48725926Y-119772038D01*
X48678307Y-119867276D01*
X48630688Y-119914895D01*
X48535450Y-119962514D01*
X48297355Y-119962514D01*
X48202117Y-119914895D01*
X48154498Y-119867276D01*
X48106879Y-119772038D01*
X48106879Y-119581561D01*
X48154498Y-119486323D01*
X48202117Y-119438704D01*
X48297355Y-119391085D01*
X46089842Y-119010133D02*
X46137461Y-118962514D01*
X46185080Y-118819657D01*
X46185080Y-118724419D01*
X46137461Y-118581561D01*
X46042223Y-118486323D01*
X45946985Y-118438704D01*
X45756509Y-118391085D01*
X45613652Y-118391085D01*
X45423176Y-118438704D01*
X45327938Y-118486323D01*
X45232700Y-118581561D01*
X45185080Y-118724419D01*
X45185080Y-118819657D01*
X45232700Y-118962514D01*
X45280319Y-119010133D01*
X45185080Y-119343466D02*
X45185080Y-120010133D01*
X46185080Y-119581561D01*
X83748571Y-141263856D02*
X83796190Y-141406713D01*
X83843809Y-141454332D01*
X83939047Y-141501951D01*
X84081904Y-141501951D01*
X84177142Y-141454332D01*
X84224761Y-141406713D01*
X84272380Y-141311475D01*
X84272380Y-140930523D01*
X83272380Y-140930523D01*
X83272380Y-141263856D01*
X83320000Y-141359094D01*
X83367619Y-141406713D01*
X83462857Y-141454332D01*
X83558095Y-141454332D01*
X83653333Y-141406713D01*
X83700952Y-141359094D01*
X83748571Y-141263856D01*
X83748571Y-140930523D01*
X84272380Y-142454332D02*
X84272380Y-141882904D01*
X84272380Y-142168618D02*
X83272380Y-142168618D01*
X83415238Y-142073380D01*
X83510476Y-141978142D01*
X83558095Y-141882904D01*
X83272380Y-143311475D02*
X83272380Y-143120999D01*
X83320000Y-143025761D01*
X83367619Y-142978142D01*
X83510476Y-142882904D01*
X83700952Y-142835285D01*
X84081904Y-142835285D01*
X84177142Y-142882904D01*
X84224761Y-142930523D01*
X84272380Y-143025761D01*
X84272380Y-143216237D01*
X84224761Y-143311475D01*
X84177142Y-143359094D01*
X84081904Y-143406713D01*
X83843809Y-143406713D01*
X83748571Y-143359094D01*
X83700952Y-143311475D01*
X83653333Y-143216237D01*
X83653333Y-143025761D01*
X83700952Y-142930523D01*
X83748571Y-142882904D01*
X83843809Y-142835285D01*
X81208571Y-141263856D02*
X81256190Y-141406713D01*
X81303809Y-141454332D01*
X81399047Y-141501951D01*
X81541904Y-141501951D01*
X81637142Y-141454332D01*
X81684761Y-141406713D01*
X81732380Y-141311475D01*
X81732380Y-140930523D01*
X80732380Y-140930523D01*
X80732380Y-141263856D01*
X80780000Y-141359094D01*
X80827619Y-141406713D01*
X80922857Y-141454332D01*
X81018095Y-141454332D01*
X81113333Y-141406713D01*
X81160952Y-141359094D01*
X81208571Y-141263856D01*
X81208571Y-140930523D01*
X81732380Y-142454332D02*
X81732380Y-141882904D01*
X81732380Y-142168618D02*
X80732380Y-142168618D01*
X80875238Y-142073380D01*
X80970476Y-141978142D01*
X81018095Y-141882904D01*
X80732380Y-143359094D02*
X80732380Y-142882904D01*
X81208571Y-142835285D01*
X81160952Y-142882904D01*
X81113333Y-142978142D01*
X81113333Y-143216237D01*
X81160952Y-143311475D01*
X81208571Y-143359094D01*
X81303809Y-143406713D01*
X81541904Y-143406713D01*
X81637142Y-143359094D01*
X81684761Y-143311475D01*
X81732380Y-143216237D01*
X81732380Y-142978142D01*
X81684761Y-142882904D01*
X81637142Y-142835285D01*
X78668571Y-141263856D02*
X78716190Y-141406713D01*
X78763809Y-141454332D01*
X78859047Y-141501951D01*
X79001904Y-141501951D01*
X79097142Y-141454332D01*
X79144761Y-141406713D01*
X79192380Y-141311475D01*
X79192380Y-140930523D01*
X78192380Y-140930523D01*
X78192380Y-141263856D01*
X78240000Y-141359094D01*
X78287619Y-141406713D01*
X78382857Y-141454332D01*
X78478095Y-141454332D01*
X78573333Y-141406713D01*
X78620952Y-141359094D01*
X78668571Y-141263856D01*
X78668571Y-140930523D01*
X79192380Y-142454332D02*
X79192380Y-141882904D01*
X79192380Y-142168618D02*
X78192380Y-142168618D01*
X78335238Y-142073380D01*
X78430476Y-141978142D01*
X78478095Y-141882904D01*
X78525714Y-143311475D02*
X79192380Y-143311475D01*
X78144761Y-143073380D02*
X78859047Y-142835285D01*
X78859047Y-143454332D01*
X76128571Y-141263856D02*
X76176190Y-141406713D01*
X76223809Y-141454332D01*
X76319047Y-141501951D01*
X76461904Y-141501951D01*
X76557142Y-141454332D01*
X76604761Y-141406713D01*
X76652380Y-141311475D01*
X76652380Y-140930523D01*
X75652380Y-140930523D01*
X75652380Y-141263856D01*
X75700000Y-141359094D01*
X75747619Y-141406713D01*
X75842857Y-141454332D01*
X75938095Y-141454332D01*
X76033333Y-141406713D01*
X76080952Y-141359094D01*
X76128571Y-141263856D01*
X76128571Y-140930523D01*
X76652380Y-142454332D02*
X76652380Y-141882904D01*
X76652380Y-142168618D02*
X75652380Y-142168618D01*
X75795238Y-142073380D01*
X75890476Y-141978142D01*
X75938095Y-141882904D01*
X75652380Y-142787666D02*
X75652380Y-143406713D01*
X76033333Y-143073380D01*
X76033333Y-143216237D01*
X76080952Y-143311475D01*
X76128571Y-143359094D01*
X76223809Y-143406713D01*
X76461904Y-143406713D01*
X76557142Y-143359094D01*
X76604761Y-143311475D01*
X76652380Y-143216237D01*
X76652380Y-142930523D01*
X76604761Y-142835285D01*
X76557142Y-142787666D01*
X68508571Y-142216238D02*
X68556190Y-142359095D01*
X68603809Y-142406714D01*
X68699047Y-142454333D01*
X68841904Y-142454333D01*
X68937142Y-142406714D01*
X68984761Y-142359095D01*
X69032380Y-142263857D01*
X69032380Y-141882904D01*
X68032380Y-141882904D01*
X68032380Y-142216238D01*
X68080000Y-142311476D01*
X68127619Y-142359095D01*
X68222857Y-142406714D01*
X68318095Y-142406714D01*
X68413333Y-142359095D01*
X68460952Y-142311476D01*
X68508571Y-142216238D01*
X68508571Y-141882904D01*
X69032380Y-142930523D02*
X69032380Y-143121000D01*
X68984761Y-143216238D01*
X68937142Y-143263857D01*
X68794285Y-143359095D01*
X68603809Y-143406714D01*
X68222857Y-143406714D01*
X68127619Y-143359095D01*
X68080000Y-143311476D01*
X68032380Y-143216238D01*
X68032380Y-143025761D01*
X68080000Y-142930523D01*
X68127619Y-142882904D01*
X68222857Y-142835285D01*
X68460952Y-142835285D01*
X68556190Y-142882904D01*
X68603809Y-142930523D01*
X68651428Y-143025761D01*
X68651428Y-143216238D01*
X68603809Y-143311476D01*
X68556190Y-143359095D01*
X68460952Y-143406714D01*
X65968571Y-142216238D02*
X66016190Y-142359095D01*
X66063809Y-142406714D01*
X66159047Y-142454333D01*
X66301904Y-142454333D01*
X66397142Y-142406714D01*
X66444761Y-142359095D01*
X66492380Y-142263857D01*
X66492380Y-141882904D01*
X65492380Y-141882904D01*
X65492380Y-142216238D01*
X65540000Y-142311476D01*
X65587619Y-142359095D01*
X65682857Y-142406714D01*
X65778095Y-142406714D01*
X65873333Y-142359095D01*
X65920952Y-142311476D01*
X65968571Y-142216238D01*
X65968571Y-141882904D01*
X65920952Y-143025761D02*
X65873333Y-142930523D01*
X65825714Y-142882904D01*
X65730476Y-142835285D01*
X65682857Y-142835285D01*
X65587619Y-142882904D01*
X65540000Y-142930523D01*
X65492380Y-143025761D01*
X65492380Y-143216238D01*
X65540000Y-143311476D01*
X65587619Y-143359095D01*
X65682857Y-143406714D01*
X65730476Y-143406714D01*
X65825714Y-143359095D01*
X65873333Y-143311476D01*
X65920952Y-143216238D01*
X65920952Y-143025761D01*
X65968571Y-142930523D01*
X66016190Y-142882904D01*
X66111428Y-142835285D01*
X66301904Y-142835285D01*
X66397142Y-142882904D01*
X66444761Y-142930523D01*
X66492380Y-143025761D01*
X66492380Y-143216238D01*
X66444761Y-143311476D01*
X66397142Y-143359095D01*
X66301904Y-143406714D01*
X66111428Y-143406714D01*
X66016190Y-143359095D01*
X65968571Y-143311476D01*
X65920952Y-143216238D01*
X73588571Y-141263856D02*
X73636190Y-141406713D01*
X73683809Y-141454332D01*
X73779047Y-141501951D01*
X73921904Y-141501951D01*
X74017142Y-141454332D01*
X74064761Y-141406713D01*
X74112380Y-141311475D01*
X74112380Y-140930523D01*
X73112380Y-140930523D01*
X73112380Y-141263856D01*
X73160000Y-141359094D01*
X73207619Y-141406713D01*
X73302857Y-141454332D01*
X73398095Y-141454332D01*
X73493333Y-141406713D01*
X73540952Y-141359094D01*
X73588571Y-141263856D01*
X73588571Y-140930523D01*
X74112380Y-142454332D02*
X74112380Y-141882904D01*
X74112380Y-142168618D02*
X73112380Y-142168618D01*
X73255238Y-142073380D01*
X73350476Y-141978142D01*
X73398095Y-141882904D01*
X73207619Y-142835285D02*
X73160000Y-142882904D01*
X73112380Y-142978142D01*
X73112380Y-143216237D01*
X73160000Y-143311475D01*
X73207619Y-143359094D01*
X73302857Y-143406713D01*
X73398095Y-143406713D01*
X73540952Y-143359094D01*
X74112380Y-142787666D01*
X74112380Y-143406713D01*
X71048571Y-141263856D02*
X71096190Y-141406713D01*
X71143809Y-141454332D01*
X71239047Y-141501951D01*
X71381904Y-141501951D01*
X71477142Y-141454332D01*
X71524761Y-141406713D01*
X71572380Y-141311475D01*
X71572380Y-140930523D01*
X70572380Y-140930523D01*
X70572380Y-141263856D01*
X70620000Y-141359094D01*
X70667619Y-141406713D01*
X70762857Y-141454332D01*
X70858095Y-141454332D01*
X70953333Y-141406713D01*
X71000952Y-141359094D01*
X71048571Y-141263856D01*
X71048571Y-140930523D01*
X71572380Y-142454332D02*
X71572380Y-141882904D01*
X71572380Y-142168618D02*
X70572380Y-142168618D01*
X70715238Y-142073380D01*
X70810476Y-141978142D01*
X70858095Y-141882904D01*
X71572380Y-143406713D02*
X71572380Y-142835285D01*
X71572380Y-143120999D02*
X70572380Y-143120999D01*
X70715238Y-143025761D01*
X70810476Y-142930523D01*
X70858095Y-142835285D01*
X63428571Y-142216238D02*
X63476190Y-142359095D01*
X63523809Y-142406714D01*
X63619047Y-142454333D01*
X63761904Y-142454333D01*
X63857142Y-142406714D01*
X63904761Y-142359095D01*
X63952380Y-142263857D01*
X63952380Y-141882904D01*
X62952380Y-141882904D01*
X62952380Y-142216238D01*
X63000000Y-142311476D01*
X63047619Y-142359095D01*
X63142857Y-142406714D01*
X63238095Y-142406714D01*
X63333333Y-142359095D01*
X63380952Y-142311476D01*
X63428571Y-142216238D01*
X63428571Y-141882904D01*
X62952380Y-142787666D02*
X62952380Y-143454333D01*
X63952380Y-143025761D01*
X60888571Y-142216238D02*
X60936190Y-142359095D01*
X60983809Y-142406714D01*
X61079047Y-142454333D01*
X61221904Y-142454333D01*
X61317142Y-142406714D01*
X61364761Y-142359095D01*
X61412380Y-142263857D01*
X61412380Y-141882904D01*
X60412380Y-141882904D01*
X60412380Y-142216238D01*
X60460000Y-142311476D01*
X60507619Y-142359095D01*
X60602857Y-142406714D01*
X60698095Y-142406714D01*
X60793333Y-142359095D01*
X60840952Y-142311476D01*
X60888571Y-142216238D01*
X60888571Y-141882904D01*
X60412380Y-143311476D02*
X60412380Y-143121000D01*
X60460000Y-143025761D01*
X60507619Y-142978142D01*
X60650476Y-142882904D01*
X60840952Y-142835285D01*
X61221904Y-142835285D01*
X61317142Y-142882904D01*
X61364761Y-142930523D01*
X61412380Y-143025761D01*
X61412380Y-143216238D01*
X61364761Y-143311476D01*
X61317142Y-143359095D01*
X61221904Y-143406714D01*
X60983809Y-143406714D01*
X60888571Y-143359095D01*
X60840952Y-143311476D01*
X60793333Y-143216238D01*
X60793333Y-143025761D01*
X60840952Y-142930523D01*
X60888571Y-142882904D01*
X60983809Y-142835285D01*
X58348571Y-142216238D02*
X58396190Y-142359095D01*
X58443809Y-142406714D01*
X58539047Y-142454333D01*
X58681904Y-142454333D01*
X58777142Y-142406714D01*
X58824761Y-142359095D01*
X58872380Y-142263857D01*
X58872380Y-141882904D01*
X57872380Y-141882904D01*
X57872380Y-142216238D01*
X57920000Y-142311476D01*
X57967619Y-142359095D01*
X58062857Y-142406714D01*
X58158095Y-142406714D01*
X58253333Y-142359095D01*
X58300952Y-142311476D01*
X58348571Y-142216238D01*
X58348571Y-141882904D01*
X57872380Y-143359095D02*
X57872380Y-142882904D01*
X58348571Y-142835285D01*
X58300952Y-142882904D01*
X58253333Y-142978142D01*
X58253333Y-143216238D01*
X58300952Y-143311476D01*
X58348571Y-143359095D01*
X58443809Y-143406714D01*
X58681904Y-143406714D01*
X58777142Y-143359095D01*
X58824761Y-143311476D01*
X58872380Y-143216238D01*
X58872380Y-142978142D01*
X58824761Y-142882904D01*
X58777142Y-142835285D01*
X55808571Y-142216238D02*
X55856190Y-142359095D01*
X55903809Y-142406714D01*
X55999047Y-142454333D01*
X56141904Y-142454333D01*
X56237142Y-142406714D01*
X56284761Y-142359095D01*
X56332380Y-142263857D01*
X56332380Y-141882904D01*
X55332380Y-141882904D01*
X55332380Y-142216238D01*
X55380000Y-142311476D01*
X55427619Y-142359095D01*
X55522857Y-142406714D01*
X55618095Y-142406714D01*
X55713333Y-142359095D01*
X55760952Y-142311476D01*
X55808571Y-142216238D01*
X55808571Y-141882904D01*
X55665714Y-143311476D02*
X56332380Y-143311476D01*
X55284761Y-143073380D02*
X55999047Y-142835285D01*
X55999047Y-143454333D01*
X53268571Y-142216238D02*
X53316190Y-142359095D01*
X53363809Y-142406714D01*
X53459047Y-142454333D01*
X53601904Y-142454333D01*
X53697142Y-142406714D01*
X53744761Y-142359095D01*
X53792380Y-142263857D01*
X53792380Y-141882904D01*
X52792380Y-141882904D01*
X52792380Y-142216238D01*
X52840000Y-142311476D01*
X52887619Y-142359095D01*
X52982857Y-142406714D01*
X53078095Y-142406714D01*
X53173333Y-142359095D01*
X53220952Y-142311476D01*
X53268571Y-142216238D01*
X53268571Y-141882904D01*
X52792380Y-142787666D02*
X52792380Y-143406714D01*
X53173333Y-143073380D01*
X53173333Y-143216238D01*
X53220952Y-143311476D01*
X53268571Y-143359095D01*
X53363809Y-143406714D01*
X53601904Y-143406714D01*
X53697142Y-143359095D01*
X53744761Y-143311476D01*
X53792380Y-143216238D01*
X53792380Y-142930523D01*
X53744761Y-142835285D01*
X53697142Y-142787666D01*
X50728571Y-142216238D02*
X50776190Y-142359095D01*
X50823809Y-142406714D01*
X50919047Y-142454333D01*
X51061904Y-142454333D01*
X51157142Y-142406714D01*
X51204761Y-142359095D01*
X51252380Y-142263857D01*
X51252380Y-141882904D01*
X50252380Y-141882904D01*
X50252380Y-142216238D01*
X50300000Y-142311476D01*
X50347619Y-142359095D01*
X50442857Y-142406714D01*
X50538095Y-142406714D01*
X50633333Y-142359095D01*
X50680952Y-142311476D01*
X50728571Y-142216238D01*
X50728571Y-141882904D01*
X50347619Y-142835285D02*
X50300000Y-142882904D01*
X50252380Y-142978142D01*
X50252380Y-143216238D01*
X50300000Y-143311476D01*
X50347619Y-143359095D01*
X50442857Y-143406714D01*
X50538095Y-143406714D01*
X50680952Y-143359095D01*
X51252380Y-142787666D01*
X51252380Y-143406714D01*
X48188571Y-142216238D02*
X48236190Y-142359095D01*
X48283809Y-142406714D01*
X48379047Y-142454333D01*
X48521904Y-142454333D01*
X48617142Y-142406714D01*
X48664761Y-142359095D01*
X48712380Y-142263857D01*
X48712380Y-141882904D01*
X47712380Y-141882904D01*
X47712380Y-142216238D01*
X47760000Y-142311476D01*
X47807619Y-142359095D01*
X47902857Y-142406714D01*
X47998095Y-142406714D01*
X48093333Y-142359095D01*
X48140952Y-142311476D01*
X48188571Y-142216238D01*
X48188571Y-141882904D01*
X48712380Y-143406714D02*
X48712380Y-142835285D01*
X48712380Y-143121000D02*
X47712380Y-143121000D01*
X47855238Y-143025761D01*
X47950476Y-142930523D01*
X47998095Y-142835285D01*
X45648571Y-142216238D02*
X45696190Y-142359095D01*
X45743809Y-142406714D01*
X45839047Y-142454333D01*
X45981904Y-142454333D01*
X46077142Y-142406714D01*
X46124761Y-142359095D01*
X46172380Y-142263857D01*
X46172380Y-141882904D01*
X45172380Y-141882904D01*
X45172380Y-142216238D01*
X45220000Y-142311476D01*
X45267619Y-142359095D01*
X45362857Y-142406714D01*
X45458095Y-142406714D01*
X45553333Y-142359095D01*
X45600952Y-142311476D01*
X45648571Y-142216238D01*
X45648571Y-141882904D01*
X45172380Y-143073380D02*
X45172380Y-143168619D01*
X45220000Y-143263857D01*
X45267619Y-143311476D01*
X45362857Y-143359095D01*
X45553333Y-143406714D01*
X45791428Y-143406714D01*
X45981904Y-143359095D01*
X46077142Y-143311476D01*
X46124761Y-143263857D01*
X46172380Y-143168619D01*
X46172380Y-143073380D01*
X46124761Y-142978142D01*
X46077142Y-142930523D01*
X45981904Y-142882904D01*
X45791428Y-142835285D01*
X45553333Y-142835285D01*
X45362857Y-142882904D01*
X45267619Y-142930523D01*
X45220000Y-142978142D01*
X45172380Y-143073380D01*
D11*
X90810000Y-129940000D02*
X90810000Y-131200000D01*
X90810000Y-136760000D02*
X90810000Y-135500000D01*
X87050000Y-129940000D02*
X90810000Y-129940000D01*
X84800000Y-136760000D02*
X90810000Y-136760000D01*
X80083922Y-131520000D02*
X80601078Y-131520000D01*
X80083922Y-130100000D02*
X80601078Y-130100000D01*
X80083922Y-135330000D02*
X80601078Y-135330000D01*
X80083922Y-133910000D02*
X80601078Y-133910000D01*
X68702422Y-138124000D02*
X69219578Y-138124000D01*
X68702422Y-136704000D02*
X69219578Y-136704000D01*
X68702422Y-140029000D02*
X69219578Y-140029000D01*
X68702422Y-138609000D02*
X69219578Y-138609000D01*
X69417000Y-129925578D02*
X69417000Y-129408422D01*
X67997000Y-129925578D02*
X67997000Y-129408422D01*
X74243000Y-129925578D02*
X74243000Y-129408422D01*
X72823000Y-129925578D02*
X72823000Y-129408422D01*
D10*
X89661904Y-137302380D02*
X89661904Y-138111904D01*
X89614285Y-138207142D01*
X89566666Y-138254761D01*
X89471428Y-138302380D01*
X89280952Y-138302380D01*
X89185714Y-138254761D01*
X89138095Y-138207142D01*
X89090476Y-138111904D01*
X89090476Y-137302380D01*
X88661904Y-137397619D02*
X88614285Y-137350000D01*
X88519047Y-137302380D01*
X88280952Y-137302380D01*
X88185714Y-137350000D01*
X88138095Y-137397619D01*
X88090476Y-137492857D01*
X88090476Y-137588095D01*
X88138095Y-137730952D01*
X88709523Y-138302380D01*
X88090476Y-138302380D01*
X77731857Y-131167142D02*
X77779476Y-131214761D01*
X77922333Y-131262380D01*
X78017571Y-131262380D01*
X78160428Y-131214761D01*
X78255666Y-131119523D01*
X78303285Y-131024285D01*
X78350904Y-130833809D01*
X78350904Y-130690952D01*
X78303285Y-130500476D01*
X78255666Y-130405238D01*
X78160428Y-130310000D01*
X78017571Y-130262380D01*
X77922333Y-130262380D01*
X77779476Y-130310000D01*
X77731857Y-130357619D01*
X76779476Y-131262380D02*
X77350904Y-131262380D01*
X77065190Y-131262380D02*
X77065190Y-130262380D01*
X77160428Y-130405238D01*
X77255666Y-130500476D01*
X77350904Y-130548095D01*
X76446142Y-130262380D02*
X75827095Y-130262380D01*
X76160428Y-130643333D01*
X76017571Y-130643333D01*
X75922333Y-130690952D01*
X75874714Y-130738571D01*
X75827095Y-130833809D01*
X75827095Y-131071904D01*
X75874714Y-131167142D01*
X75922333Y-131214761D01*
X76017571Y-131262380D01*
X76303285Y-131262380D01*
X76398523Y-131214761D01*
X76446142Y-131167142D01*
X77731857Y-134977142D02*
X77779476Y-135024761D01*
X77922333Y-135072380D01*
X78017571Y-135072380D01*
X78160428Y-135024761D01*
X78255666Y-134929523D01*
X78303285Y-134834285D01*
X78350904Y-134643809D01*
X78350904Y-134500952D01*
X78303285Y-134310476D01*
X78255666Y-134215238D01*
X78160428Y-134120000D01*
X78017571Y-134072380D01*
X77922333Y-134072380D01*
X77779476Y-134120000D01*
X77731857Y-134167619D01*
X76779476Y-135072380D02*
X77350904Y-135072380D01*
X77065190Y-135072380D02*
X77065190Y-134072380D01*
X77160428Y-134215238D01*
X77255666Y-134310476D01*
X77350904Y-134358095D01*
X75827095Y-135072380D02*
X76398523Y-135072380D01*
X76112809Y-135072380D02*
X76112809Y-134072380D01*
X76208047Y-134215238D01*
X76303285Y-134310476D01*
X76398523Y-134358095D01*
X71858166Y-137771142D02*
X71905785Y-137818761D01*
X72048642Y-137866380D01*
X72143880Y-137866380D01*
X72286738Y-137818761D01*
X72381976Y-137723523D01*
X72429595Y-137628285D01*
X72477214Y-137437809D01*
X72477214Y-137294952D01*
X72429595Y-137104476D01*
X72381976Y-137009238D01*
X72286738Y-136914000D01*
X72143880Y-136866380D01*
X72048642Y-136866380D01*
X71905785Y-136914000D01*
X71858166Y-136961619D01*
X71001023Y-137199714D02*
X71001023Y-137866380D01*
X71239119Y-136818761D02*
X71477214Y-137533047D01*
X70858166Y-137533047D01*
X72112142Y-139152333D02*
X72159761Y-139104714D01*
X72207380Y-138961857D01*
X72207380Y-138866619D01*
X72159761Y-138723761D01*
X72064523Y-138628523D01*
X71969285Y-138580904D01*
X71778809Y-138533285D01*
X71635952Y-138533285D01*
X71445476Y-138580904D01*
X71350238Y-138628523D01*
X71255000Y-138723761D01*
X71207380Y-138866619D01*
X71207380Y-138961857D01*
X71255000Y-139104714D01*
X71302619Y-139152333D01*
X71207380Y-139485666D02*
X71207380Y-140104714D01*
X71588333Y-139771380D01*
X71588333Y-139914238D01*
X71635952Y-140009476D01*
X71683571Y-140057095D01*
X71778809Y-140104714D01*
X72016904Y-140104714D01*
X72112142Y-140057095D01*
X72159761Y-140009476D01*
X72207380Y-139914238D01*
X72207380Y-139628523D01*
X72159761Y-139533285D01*
X72112142Y-139485666D01*
X68873666Y-127611142D02*
X68921285Y-127658761D01*
X69064142Y-127706380D01*
X69159380Y-127706380D01*
X69302238Y-127658761D01*
X69397476Y-127563523D01*
X69445095Y-127468285D01*
X69492714Y-127277809D01*
X69492714Y-127134952D01*
X69445095Y-126944476D01*
X69397476Y-126849238D01*
X69302238Y-126754000D01*
X69159380Y-126706380D01*
X69064142Y-126706380D01*
X68921285Y-126754000D01*
X68873666Y-126801619D01*
X68492714Y-126801619D02*
X68445095Y-126754000D01*
X68349857Y-126706380D01*
X68111761Y-126706380D01*
X68016523Y-126754000D01*
X67968904Y-126801619D01*
X67921285Y-126896857D01*
X67921285Y-126992095D01*
X67968904Y-127134952D01*
X68540333Y-127706380D01*
X67921285Y-127706380D01*
X73699666Y-127611142D02*
X73747285Y-127658761D01*
X73890142Y-127706380D01*
X73985380Y-127706380D01*
X74128238Y-127658761D01*
X74223476Y-127563523D01*
X74271095Y-127468285D01*
X74318714Y-127277809D01*
X74318714Y-127134952D01*
X74271095Y-126944476D01*
X74223476Y-126849238D01*
X74128238Y-126754000D01*
X73985380Y-126706380D01*
X73890142Y-126706380D01*
X73747285Y-126754000D01*
X73699666Y-126801619D01*
X72747285Y-127706380D02*
X73318714Y-127706380D01*
X73033000Y-127706380D02*
X73033000Y-126706380D01*
X73128238Y-126849238D01*
X73223476Y-126944476D01*
X73318714Y-126992095D01*
M02*
